# xmcd CD database file
# Generated: Thu Jul 21 13:24:34 2005 by KSCD
# 
# Track frame offsets:
#       150
#       12896
#       24241
#       36848
#       51557
#       63284
#       74498
#       86170
#       96533
#       110514
#       142027
#       158547
#       168814
#
# Disc length: 2555 seconds
#
# Revision: 1
# Processed by: cddbd v1.5.1PL0 Copyright (c) Steve Scherf et al.
# Submitted via: Kscd 1.3.3
#
DISCID=ae09f90d
DTITLE=Ray Charles - The Ultimate Blues Collection 8: Compact Disc 3
DYEAR=1900
DGENRE=
TTITLE0=Baby Won't You Please Come Home
TTITLE1=She's On The Ball
TTITLE2=You Always Miss The Water (When the Well Runs Dry)
TTITLE3=Halleluja, I Lover Her So
TTITLE4=If I Give You My Love
TTITLE5=Margie
TTITLE6=C.C. Rider
TTITLE7=The Ego Song
TTITLE8=Baby Let Me Hold You Hand
TTITLE9=Come Rain Or Come Shine
TTITLE10=I Believe To My Soul
TTITLE11=I'v Had My Fun (Going Down Slow)
TTITLE12=What'd I Say
EXTD=
EXTT0=
EXTT1=
EXTT2=
EXTT3=
EXTT4=
EXTT5=
EXTT6=
EXTT7=
EXTT8=
EXTT9=
EXTT10=
EXTT11=
EXTT12=
PLAYORDER=
